<svg xmlns="http://www.w3.org/2000/svg" width="118" height="16" viewBox="0 0 117.661 16" fill="none" role="img" aria-labelledby="tractian-title">
  <title id="tractian-title">TRACTIAN</title>
  <path d="M41.639.348l6.832 15.428h-4.547l-1.217-3.007-1.267-3.229-1.987-4.945-1.988 4.945-1.267 3.229-1.217 3.007h-4.472L37.341.348h4.298Zm-13.366 8.645c.522-.845.795-1.813.795-2.931s-.299-2.161-.845-3.031c-.571-.87-1.367-1.515-2.385-1.987C24.795.571 23.577.348 22.211.348h-7.055v3.428h6.782c.87 0 1.566.199 2.037.596.448.397.696.969.696 1.664s-.248 1.267-.696 1.665c-.472.397-1.142.571-2.037.571h-6.782v7.478h4.372v-4.099h2.385l2.807 4.099h4.671l-3.353-4.819c.944-.472 1.689-1.093 2.235-1.938ZM117.661.348h-4.273l-.025 4.422 4.273 5.168.025-9.59ZM54.258 4.149c.671-.348 1.416-.547 2.261-.547 1.416 0 2.634.621 3.627 1.814l2.783-2.509c-.745-.92-1.689-1.665-2.832-2.162C58.954.248 57.687 0 56.271 0c-1.64 0-3.08.348-4.372 1.044-1.267.695-2.286 1.639-3.031 2.832-.745 1.242-1.093 2.609-1.093 4.149 0 1.539.348 2.931 1.093 4.148.745 1.193 1.764 2.137 3.031 2.808 1.267.696 2.732 1.019 4.372 1.019 1.416 0 2.658-.248 3.826-.745 1.117-.497 2.062-1.218 2.832-2.162l-2.783-2.509c-1.019 1.218-2.236 1.814-3.627 1.814-.845 0-1.59-.174-2.261-.547-.671-.348-1.168-.869-1.515-1.54-.347-.671-.522-1.441-.522-2.311 0-.87.174-1.64.522-2.286.348-.671.87-1.193 1.515-1.565ZM0 3.801h4.746v11.975h4.372V3.801h4.72V.348H0v3.453Zm103.003 11.975h4.273l.025-4.621-4.273-5.441-.025 10.062ZM90.904.348l-6.807 15.428h4.447l1.217-3.007 1.267-3.229 1.988-4.945 1.987 4.945 1.267 3.229 1.218 3.007h4.546L95.202.348h-4.298Zm22.484 8.223L106.581.348h-3.603v2.061l4.274 5.168 6.807 8.223h3.602v-1.788l-4.273-5.441Zm-34.633 7.205h4.372V.348h-4.372v15.428ZM63.625 3.801h4.721v11.975h4.372V3.801h4.72V.348H63.625v3.453Z" fill="#2563EB"/>
</svg>
